<!-- From https://aksel.nav.no/ikoner -->
<svg xmlns="http://www.w3.org/2000/svg" width="24" height="24" viewBox="0 0 24 24" fill="none">
    <path d="M7.46967 5.96967C7.76256 5.67678 8.23732 5.67678 8.53022 5.96967L14.0302 11.4697C14.3231 11.7626 14.3231 12.2373 14.0302 12.5302L8.53022 18.0302C8.23732 18.3231 7.76256 18.3231 7.46967 18.0302C7.17678 17.7373 7.17678 17.2626 7.46967 16.9697L12.4394 11.9999L7.46967 7.03022C7.17678 6.73732 7.17678 6.26256 7.46967 5.96967ZM11.4697 5.96967C11.7626 5.67678 12.2373 5.67678 12.5302 5.96967L18.0302 11.4697C18.3231 11.7626 18.3231 12.2373 18.0302 12.5302L12.5302 18.0302C12.2373 18.3231 11.7626 18.3231 11.4697 18.0302C11.1768 17.7373 11.1768 17.2626 11.4697 16.9697L16.4394 11.9999L11.4697 7.03022C11.1768 6.73732 11.1768 6.26256 11.4697 5.96967Z" fill="#202733"/>
</svg>